<svg width="40.000000" height="25.000000" viewBox="0 0 40 25" fill="none" xmlns="http://www.w3.org/2000/svg" xmlns:xlink="http://www.w3.org/1999/xlink">
	<desc>
			Created with Pixso.
	</desc>
	<defs>
		<clipPath id="clip2_147">
			<rect id="Frame" width="40.000000" height="25.000000" fill="white" fill-opacity="0"/>
		</clipPath>
	</defs>
	<rect id="Frame" width="40.000000" height="25.000000" fill="#FFFFFF" fill-opacity="0"/>
	<g clip-path="url(#clip2_147)">
		<g opacity="0.070000">
			<path id="Vector" d="M36.84 0L3.15 0C1.36 0 0 1.35 0 3.12L0 21.87C0 23.64 1.47 25 3.15 25L36.84 25C38.63 25 40 23.64 40 21.87L40 3.12C40 1.35 38.52 0 36.84 0Z" fill="#000000" fill-opacity="1.000000" fill-rule="nonzero"/>
		</g>
		<path id="Vector" d="M36.84 1.04C38 1.04 38.94 1.97 38.94 3.12L38.94 21.87C38.94 23.02 38 23.95 36.84 23.95L3.15 23.95C2 23.95 1.05 23.02 1.05 21.87L1.05 3.12C1.05 1.97 2 1.04 3.15 1.04L36.84 1.04Z" fill="#FFFFFF" fill-opacity="1.000000" fill-rule="nonzero"/>
		<path id="Vector" d="M26.58 16.9C24.8 18.44 22.21 19.27 19.98 19.27C16.85 19.27 14.04 17.91 11.91 15.66C11.74 15.48 11.89 15.24 12.09 15.38C14.39 16.94 17.23 17.89 20.17 17.89C22.14 17.89 24.32 17.41 26.32 16.41C26.63 16.26 26.88 16.64 26.58 16.9ZM27.33 15.9C27.1 15.56 25.82 15.74 25.24 15.82C25.07 15.85 25.04 15.67 25.2 15.54C26.22 14.7 27.9 14.94 28.09 15.22C28.29 15.51 28.04 17.47 27.08 18.41C26.93 18.56 26.79 18.48 26.86 18.29C27.08 17.66 27.56 16.25 27.33 15.9Z" fill="#FF9900" fill-opacity="1.000000" fill-rule="nonzero"/>
		<path id="Vector" d="M22.96 15.92C22.35 15.4 22.25 15.16 21.91 14.67C20.92 15.72 20.21 16.04 18.91 16.04C17.38 16.04 16.19 15.06 16.19 13.1C16.19 11.57 16.99 10.53 18.13 10.02C19.12 9.57 20.5 9.49 21.55 9.37L21.55 9.13C21.55 8.68 21.59 8.15 21.33 7.76C21.11 7.41 20.68 7.27 20.31 7.27C19.62 7.27 19 7.64 18.85 8.4C18.81 8.57 18.69 8.74 18.53 8.75L16.76 8.55C16.62 8.52 16.45 8.39 16.49 8.15C16.9 5.94 18.83 5.27 20.56 5.27C21.45 5.27 22.61 5.52 23.31 6.21C24.19 7.07 24.11 8.21 24.11 9.45L24.11 12.39C24.11 13.27 24.46 13.66 24.79 14.13C24.91 14.3 24.94 14.51 24.79 14.63C24.42 14.96 23.76 15.55 23.39 15.88C23.33 15.93 23.26 15.96 23.18 15.97C23.1 15.98 23.03 15.96 22.96 15.92ZM21.21 13.29C21.57 12.63 21.55 12.02 21.55 11.29L21.55 10.88C20.24 10.88 18.85 11.17 18.85 12.77C18.85 13.59 19.25 14.14 19.95 14.14C20.46 14.14 20.92 13.81 21.21 13.29Z" fill="#221F1F" fill-opacity="1.000000" fill-rule="nonzero"/>
	</g>
</svg>
