<svg width="40.000000" height="25.000000" viewBox="0 0 40 25" fill="none" xmlns="http://www.w3.org/2000/svg" xmlns:xlink="http://www.w3.org/1999/xlink">
	<desc>
			Created with Pixso.
	</desc>
	<defs>
		<clipPath id="clip2_152">
			<rect id="Frame" width="40.000000" height="25.000000" fill="white" fill-opacity="0"/>
		</clipPath>
	</defs>
	<rect id="Frame" width="40.000000" height="25.000000" fill="#FFFFFF" fill-opacity="0"/>
	<g clip-path="url(#clip2_152)">
		<g opacity="0.070000">
			<path id="Vector" d="M36.84 0L3.15 0C1.36 0 0 1.35 0 3.12L0 21.87C0 23.64 1.47 25 3.15 25L36.84 25C38.63 25 40 23.64 40 21.87L40 3.12C40 1.35 38.52 0 36.84 0Z" fill="#000000" fill-opacity="1.000000" fill-rule="nonzero"/>
		</g>
		<path id="Vector" d="M36.84 1.04C38 1.04 38.94 1.97 38.94 3.12L38.94 21.87C38.94 23.02 38 23.95 36.84 23.95L3.15 23.95C2 23.95 1.05 23.02 1.05 21.87L1.05 3.12C1.05 1.97 2 1.04 3.15 1.04L36.84 1.04Z" fill="#006FCF" fill-opacity="1.000000" fill-rule="nonzero"/>
		<path id="Vector" d="M9.44 10.69L10.25 12.64L8.63 12.64L9.44 10.69ZM26.36 10.77L23.23 10.77L23.23 11.63L26.31 11.63L26.31 12.92L23.23 12.92L23.23 13.88L26.37 13.88L26.37 14.65L28.55 12.32L26.37 9.88L26.36 10.77ZM11.56 8.33L15.76 8.33L16.7 10.35L17.56 8.33L28.48 8.33L29.61 9.57L30.78 8.33L35.8 8.33L32.09 12.34L35.76 16.33L30.67 16.33L29.54 15.09L28.35 16.33L10.55 16.33L10.03 15.09L8.84 15.09L8.32 16.33L4.21 16.33L7.66 8.33L11.28 8.33L11.56 8.33ZM20.68 9.46L18.32 9.46L16.74 13.14L15.03 9.46L12.69 9.46L12.69 14.47L10.52 9.46L8.42 9.46L5.92 15.2L7.55 15.2L8.07 13.96L10.81 13.96L11.33 15.2L14.19 15.2L14.19 11.1L16.03 15.21L17.28 15.21L19.12 11.11L19.12 15.21L20.65 15.21L20.68 9.46L20.68 9.46ZM30.51 12.34L33.17 9.46L31.25 9.46L29.57 11.25L27.94 9.46L21.73 9.46L21.73 15.21L27.85 15.21L29.55 13.39L31.18 15.21L33.15 15.21L30.51 12.34Z" fill="#FFFFFF" fill-opacity="1.000000" fill-rule="nonzero"/>
	</g>
</svg>
