<svg width="40.000000" height="25.000000" viewBox="0 0 40 25" fill="none" xmlns="http://www.w3.org/2000/svg" xmlns:xlink="http://www.w3.org/1999/xlink">
	<desc>
			Created with Pixso.
	</desc>
	<defs> 
		<clipPath id="clip2_193">
			<rect id="Frame" width="40.000000" height="25.000000" fill="white" fill-opacity="0"/>
		</clipPath>
	</defs>
	<rect id="Frame" width="40.000000" height="25.000000" fill="#FFFFFF" fill-opacity="0"/>
	<g clip-path="url(#clip2_193)">
		<g opacity="0.070000">
			<path id="Vector" d="M36.84 0L3.15 0C1.36 0 0 1.35 0 3.12L0 21.87C0 23.64 1.47 25 3.15 25L36.84 25C38.63 25 40 23.64 40 21.87L40 3.12C40 1.35 38.52 0 36.84 0Z" fill="#000000" fill-opacity="1.000000" fill-rule="nonzero"/>
		</g>
		<path id="Vector" d="M36.84 1.04C38 1.04 38.94 1.97 38.94 3.12L38.94 21.87C38.94 23.02 38 23.95 36.84 23.95L3.15 23.95C2 23.95 1.05 23.02 1.05 21.87L1.05 3.12C1.05 1.97 2 1.04 3.15 1.04L36.84 1.04Z" fill="#5A31F4" fill-opacity="1.000000" fill-rule="nonzero"/>
		<path id="Vector" d="M22.5 10.11C22.5 11.85 21.26 13.09 19.53 13.09L17.9 13.09C17.88 13.09 17.85 13.1 17.83 13.11C17.8 13.13 17.79 13.15 17.78 13.17C17.77 13.19 17.77 13.21 17.77 13.22L17.77 15.51C17.77 15.53 17.76 15.54 17.76 15.56C17.75 15.58 17.74 15.59 17.73 15.6C17.71 15.62 17.7 15.63 17.68 15.63C17.66 15.64 17.65 15.64 17.63 15.64L16.49 15.64C16.45 15.64 16.42 15.63 16.39 15.6C16.37 15.58 16.35 15.54 16.35 15.51L16.35 7.27C16.35 7.25 16.36 7.22 16.37 7.2C16.39 7.17 16.41 7.16 16.44 7.15C16.45 7.14 16.47 7.14 16.49 7.14L19.54 7.14C21.26 7.14 22.5 8.38 22.5 10.11ZM21.08 10.11C21.08 9.12 20.39 8.39 19.45 8.39L17.9 8.39C17.88 8.39 17.87 8.39 17.85 8.4C17.83 8.4 17.82 8.41 17.81 8.43C17.79 8.44 17.78 8.45 17.78 8.47C17.77 8.49 17.77 8.5 17.77 8.52L17.77 11.7C17.77 11.72 17.77 11.73 17.78 11.75C17.78 11.77 17.79 11.78 17.81 11.79C17.82 11.81 17.83 11.82 17.85 11.82C17.87 11.83 17.88 11.83 17.9 11.83L19.45 11.83C20.39 11.84 21.08 11.11 21.08 10.11ZM22.84 14.06C22.83 13.79 22.89 13.53 23 13.29C23.12 13.05 23.3 12.84 23.52 12.69C23.97 12.36 24.66 12.19 25.69 12.16L26.77 12.12L26.77 11.8C26.77 11.17 26.34 10.9 25.65 10.9C24.96 10.9 24.52 11.14 24.42 11.54C24.41 11.57 24.39 11.59 24.37 11.61C24.34 11.62 24.31 11.63 24.29 11.63L23.21 11.63C23.18 11.63 23.15 11.62 23.13 11.61C23.1 11.59 23.09 11.56 23.08 11.54C23.07 11.52 23.07 11.5 23.07 11.48C23.23 10.54 24.02 9.83 25.7 9.83C27.48 9.83 28.12 10.65 28.12 12.2L28.12 15.51C28.12 15.53 28.12 15.54 28.11 15.56C28.1 15.58 28.09 15.59 28.08 15.6C28.07 15.62 28.05 15.63 28.04 15.63C28.02 15.64 28 15.64 27.98 15.64L26.9 15.64C26.86 15.64 26.83 15.63 26.8 15.6C26.78 15.58 26.76 15.54 26.76 15.51L26.76 15.26C26.76 15.24 26.76 15.22 26.75 15.2C26.73 15.19 26.72 15.17 26.7 15.17C26.68 15.16 26.66 15.16 26.64 15.16C26.62 15.16 26.6 15.17 26.59 15.19C26.26 15.54 25.74 15.79 24.89 15.79C23.66 15.79 22.84 15.16 22.84 14.06ZM26.77 13.35L26.77 13.09L25.36 13.16C24.62 13.2 24.19 13.5 24.19 14.01C24.19 14.48 24.59 14.73 25.28 14.73C26.22 14.73 26.77 14.23 26.77 13.35ZM29.21 18.14L29.21 17.18C29.21 17.16 29.22 17.14 29.22 17.12C29.23 17.11 29.25 17.09 29.26 17.08C29.28 17.06 29.3 17.06 29.32 17.05C29.34 17.05 29.36 17.04 29.38 17.05C29.54 17.08 29.71 17.09 29.88 17.09C30.17 17.11 30.46 17.03 30.7 16.86C30.93 16.7 31.11 16.46 31.19 16.18L31.26 15.96C31.27 15.93 31.27 15.9 31.26 15.87L29 10.17C28.99 10.14 28.99 10.11 29 10.07C29.01 10.04 29.04 10.02 29.07 10C29.09 9.99 29.11 9.98 29.13 9.98L30.23 9.98C30.25 9.98 30.28 9.99 30.31 10.01C30.33 10.02 30.35 10.05 30.36 10.07L31.89 14.09C31.9 14.12 31.92 14.14 31.94 14.16C31.96 14.18 31.99 14.18 32.02 14.18C32.05 14.18 32.08 14.17 32.1 14.16C32.12 14.14 32.14 14.12 32.15 14.09L33.48 10.08C33.49 10.06 33.51 10.03 33.53 10.02C33.56 10 33.59 9.99 33.62 9.99L34.75 9.99C34.78 9.99 34.82 10 34.84 10.03C34.87 10.05 34.88 10.08 34.89 10.11C34.89 10.13 34.89 10.16 34.88 10.18L32.46 16.51C31.91 17.98 30.96 18.35 29.91 18.35C29.71 18.36 29.51 18.33 29.32 18.28C29.28 18.28 29.25 18.26 29.24 18.23C29.22 18.2 29.21 18.17 29.21 18.14ZM9.02 6.66C7.58 6.65 6.19 7.18 5.14 8.15C5.09 8.19 5.07 8.24 5.06 8.3C5.06 8.36 5.07 8.42 5.11 8.47L5.76 9.35C5.78 9.37 5.81 9.4 5.84 9.42C5.87 9.44 5.91 9.45 5.94 9.45C5.98 9.45 6.02 9.45 6.05 9.43C6.08 9.42 6.11 9.4 6.14 9.37C6.52 9 6.97 8.71 7.46 8.51C7.96 8.31 8.49 8.21 9.02 8.22C11.25 8.22 12.42 9.87 12.42 11.5C12.42 13.27 11.2 14.52 9.43 14.54C8.07 14.54 7.05 13.66 7.05 12.49C7.05 12.19 7.12 11.9 7.25 11.63C7.38 11.36 7.57 11.13 7.8 10.94C7.85 10.9 7.88 10.85 7.89 10.78C7.89 10.72 7.88 10.66 7.83 10.61L7.15 9.76C7.13 9.73 7.1 9.71 7.07 9.69C7.05 9.68 7.01 9.67 6.98 9.66C6.95 9.66 6.91 9.66 6.88 9.67C6.85 9.68 6.82 9.7 6.79 9.72C6.37 10.06 6.04 10.48 5.8 10.96C5.57 11.43 5.45 11.96 5.45 12.49C5.45 14.5 7.19 16.08 9.42 16.09L9.45 16.09C12.1 16.06 14.02 14.13 14.02 11.5C14.02 9.16 12.26 6.66 9.02 6.66Z" fill="#FFFFFF" fill-opacity="1.000000" fill-rule="nonzero"/>
	</g>
</svg>
