<svg width="40.000000" height="25.000000" viewBox="0 0 40 25" fill="none" xmlns="http://www.w3.org/2000/svg" xmlns:xlink="http://www.w3.org/1999/xlink">
	<desc>
			Created with Pixso.
	</desc>
	<defs>
		<clipPath id="clip2_172">
			<rect id="Frame" width="40.000000" height="25.000000" fill="white" fill-opacity="0"/>
		</clipPath>
		<linearGradient id="paint_linear_2_176_0" x1="22.796858" y1="12.786913" x2="20.665277" y2="9.483788" gradientUnits="userSpaceOnUse">
			<stop stop-color="#F89F20"/>
			<stop offset="0.250000" stop-color="#F79A20"/>
			<stop offset="0.533000" stop-color="#F68D20"/>
			<stop offset="0.620000" stop-color="#F58720"/>
			<stop offset="0.723000" stop-color="#F48120"/>
			<stop offset="1.000000" stop-color="#F37521"/>
		</linearGradient>
		<linearGradient id="paint_linear_2_177_0" x1="22.461065" y1="12.742123" x2="19.345276" y2="6.715040" gradientUnits="userSpaceOnUse">
			<stop stop-color="#F58720"/>
			<stop offset="0.359000" stop-color="#E16F27"/>
			<stop offset="0.703000" stop-color="#D4602C"/>
			<stop offset="0.982000" stop-color="#D05B2E"/>
		</linearGradient>
	</defs>
	<rect id="Frame" width="40.000000" height="25.000000" fill="#FFFFFF" fill-opacity="0"/>
	<g clip-path="url(#clip2_172)">
		<g opacity="0.070000">
			<path id="Vector" d="M36.84 0L3.15 0C1.36 0 0 1.35 0 3.12L0 21.87C0 23.64 1.47 25 3.15 25L36.84 25C38.63 25 40 23.64 40 21.87L40 3.12C40 1.35 38.52 0 36.84 0Z" fill="#000000" fill-opacity="1.000000" fill-rule="nonzero"/>
		</g>
		<path id="Vector" d="M36.84 1.04C38 1.04 38.94 1.97 38.94 3.12L38.94 21.87C38.94 23.02 38 23.95 36.84 23.95L3.15 23.95C2 23.95 1.05 23.02 1.05 21.87L1.05 3.12C1.05 1.97 2 1.04 3.15 1.04L36.84 1.04Z" fill="#FFFFFF" fill-opacity="1.000000" fill-rule="nonzero"/>
		<path id="Vector" d="M3.75 7.45L2.1 7.45L2.1 13.18L3.75 13.18C4.63 13.18 5.26 12.97 5.82 12.53C6.48 11.98 6.87 11.17 6.87 10.33C6.86 8.63 5.58 7.45 3.75 7.45ZM5.08 11.77C4.72 12.08 4.27 12.22 3.53 12.22L3.23 12.22L3.23 8.43L3.53 8.43C4.26 8.43 4.7 8.56 5.08 8.89C5.47 9.23 5.7 9.77 5.7 10.32C5.7 10.87 5.47 11.42 5.08 11.77ZM7.38 7.45L8.51 7.45L8.51 13.18L7.38 13.18L7.38 7.45ZM11.27 9.65C10.6 9.4 10.4 9.23 10.4 8.93C10.4 8.57 10.75 8.3 11.24 8.3C11.57 8.3 11.86 8.43 12.14 8.77L12.73 8C12.25 7.59 11.67 7.37 11.03 7.37C10.01 7.37 9.22 8.08 9.22 9.02C9.22 9.81 9.58 10.21 10.64 10.59C11.08 10.75 11.3 10.85 11.42 10.91C11.64 11.06 11.75 11.27 11.75 11.5C11.75 11.97 11.38 12.32 10.88 12.32C10.34 12.32 9.91 12.05 9.65 11.56L8.92 12.25C9.44 13.02 10.07 13.35 10.92 13.35C12.09 13.35 12.92 12.58 12.92 11.46C12.94 10.54 12.55 10.12 11.27 9.65ZM13.29 10.33C13.29 12.02 14.63 13.32 16.34 13.32C16.83 13.32 17.25 13.22 17.75 12.98L17.75 11.67C17.3 12.12 16.9 12.3 16.4 12.3C15.26 12.3 14.45 11.48 14.45 10.32C14.45 9.21 15.28 8.35 16.34 8.35C16.88 8.35 17.29 8.54 17.75 9L17.75 7.68C17.26 7.43 16.85 7.33 16.36 7.33C14.67 7.33 13.29 8.66 13.29 10.33ZM26.72 11.31L25.17 7.45L23.94 7.45L26.4 13.33L27.01 13.33L29.5 7.45L28.28 7.45L26.72 11.31ZM30.02 13.18L33.22 13.18L33.22 12.21L31.14 12.21L31.14 10.67L33.14 10.67L33.14 9.7L31.14 9.7L31.14 8.43L33.22 8.43L33.22 7.45L30.02 7.45L30.02 13.18ZM37.69 9.15C37.69 8.08 36.94 7.46 35.64 7.46L33.96 7.46L33.96 13.19L35.09 13.19L35.09 10.89L35.24 10.89L36.8 13.19L38.18 13.19L36.36 10.78C37.22 10.6 37.69 10.03 37.69 9.15ZM35.42 10.1L35.09 10.1L35.09 8.36L35.44 8.36C36.14 8.36 36.52 8.65 36.52 9.21C36.52 9.79 36.14 10.1 35.42 10.1Z" fill="#231F20" fill-opacity="1.000000" fill-rule="nonzero"/>
		<path id="Vector" d="M21.22 13.39C22.03 13.39 22.82 13.07 23.4 12.5C23.98 11.92 24.3 11.15 24.3 10.34C24.3 9.53 23.98 8.75 23.4 8.18C22.82 7.61 22.03 7.29 21.22 7.29C20.4 7.29 19.61 7.61 19.03 8.18C18.46 8.75 18.13 9.53 18.13 10.34C18.13 11.15 18.46 11.92 19.03 12.5C19.61 13.07 20.4 13.39 21.22 13.39Z" fill="url(#paint_linear_2_176_0)" fill-opacity="1.000000" fill-rule="nonzero"/>
		<g opacity="0.650000">
			<path id="Vector" d="M21.22 13.39C22.03 13.39 22.82 13.07 23.4 12.5C23.98 11.92 24.3 11.15 24.3 10.34C24.3 9.53 23.98 8.75 23.4 8.18C22.82 7.61 22.03 7.29 21.22 7.29C20.4 7.29 19.61 7.61 19.03 8.18C18.46 8.75 18.13 9.53 18.13 10.34C18.13 11.15 18.46 11.92 19.03 12.5C19.61 13.07 20.4 13.39 21.22 13.39Z" fill="url(#paint_linear_2_177_0)" fill-opacity="1.000000" fill-rule="nonzero"/>
		</g>
		<path id="Vector" d="M38.49 7.81C38.49 7.71 38.42 7.66 38.3 7.66L38.13 7.66L38.13 8.16L38.26 8.16L38.26 7.96L38.41 8.16L38.55 8.16L38.38 7.95C38.45 7.94 38.49 7.89 38.49 7.81ZM38.28 7.89L38.26 7.89L38.26 7.75L38.28 7.75C38.34 7.75 38.37 7.77 38.37 7.81C38.37 7.87 38.34 7.89 38.28 7.89Z" fill="#231F20" fill-opacity="1.000000" fill-rule="nonzero"/>
		<path id="Vector" d="M38.32 7.47C38.08 7.47 37.88 7.67 37.88 7.91C37.88 8.15 38.08 8.34 38.32 8.34C38.56 8.34 38.76 8.15 38.76 7.91C38.76 7.67 38.56 7.47 38.32 7.47ZM38.32 8.27C38.13 8.27 37.96 8.12 37.96 7.91C37.96 7.71 38.12 7.54 38.32 7.54C38.51 7.54 38.67 7.71 38.67 7.91C38.67 8.11 38.51 8.27 38.32 8.27Z" fill="#231F20" fill-opacity="1.000000" fill-rule="nonzero"/>
		<path id="Vector" d="M38.94 13.52C38.94 13.52 28.51 20.7 9.44 23.95L36.84 23.95C37.39 23.95 37.92 23.74 38.32 23.35C38.71 22.96 38.94 22.44 38.94 21.89L38.97 18.74L38.94 13.52Z" fill="#F48120" fill-opacity="1.000000" fill-rule="nonzero"/>
	</g>
</svg>
