<svg width="40.000000" height="25.000000" viewBox="0 0 40 25" fill="none" xmlns="http://www.w3.org/2000/svg" xmlns:xlink="http://www.w3.org/1999/xlink">
	<desc>
			Created with Pixso.
	</desc>
	<defs>
		<clipPath id="clip2_168">
			<rect id="Frame" width="40.000000" height="25.000000" fill="white" fill-opacity="0"/>
		</clipPath>
	</defs>
	<rect id="Frame" width="40.000000" height="25.000000" fill="#FFFFFF" fill-opacity="0"/>
	<g clip-path="url(#clip2_168)">
		<g opacity="0.070000">
			<path id="Vector" d="M36.84 0L3.15 0C1.36 0 0 1.35 0 3.12L0 21.87C0 23.64 1.47 25 3.15 25L36.84 25C38.63 25 40 23.64 40 21.87L40 3.12C40 1.35 38.52 0 36.84 0Z" fill="#000000" fill-opacity="1.000000" fill-rule="nonzero"/>
		</g>
		<path id="Vector" d="M36.84 1.04C38 1.04 38.94 1.97 38.94 3.12L38.94 21.87C38.94 23.02 38 23.95 36.84 23.95L3.15 23.95C2 23.95 1.05 23.02 1.05 21.87L1.05 3.12C1.05 1.97 2 1.04 3.15 1.04L36.84 1.04Z" fill="#FFFFFF" fill-opacity="1.000000" fill-rule="nonzero"/>
		<path id="Vector" d="M12.63 12.5L12.63 16.35C12.63 16.66 12.42 16.66 12.1 16.56C10.1 15.72 8.94 13.12 9.68 10.93C10.1 9.79 10.94 8.85 12.1 8.43C12.52 8.22 12.63 8.33 12.63 8.64L12.63 12.5ZM14.73 12.5L14.73 8.64C14.73 8.33 14.73 8.33 15.05 8.43C17.26 9.27 18.42 11.87 17.57 14.06C17.15 15.2 16.31 16.14 15.15 16.56C14.73 16.77 14.73 16.66 14.73 16.35L14.73 12.5ZM22.31 5.2L13.68 5.2C17.68 5.2 20.84 8.43 20.84 12.5C20.84 16.56 17.68 19.79 13.68 19.79L22.31 19.79C26.31 19.79 29.47 16.56 29.47 12.5C29.47 8.43 26.31 5.2 22.31 5.2Z" fill="#3086C8" fill-opacity="1.000000" fill-rule="nonzero"/>
	</g>
</svg>
