<svg width="40.000000" height="25.000000" viewBox="0 0 40 25" fill="none" xmlns="http://www.w3.org/2000/svg" xmlns:xlink="http://www.w3.org/1999/xlink">
	<desc>
			Created with Pixso.
	</desc>
	<defs>
		<clipPath id="clip2_181">
			<rect id="Frame" width="40.000000" height="25.000000" fill="white" fill-opacity="0"/>
		</clipPath>
	</defs>
	<rect id="Frame" width="40.000000" height="25.000000" fill="#FFFFFF" fill-opacity="0"/>
	<g clip-path="url(#clip2_181)">
		<g opacity="0.070000">
			<path id="Vector" d="M36.84 0L3.15 0C1.36 0 0 1.35 0 3.12L0 21.87C0 23.64 1.47 25 3.15 25L36.84 25C38.63 25 40 23.64 40 21.87L40 3.12C40 1.35 38.52 0 36.84 0Z" fill="#000000" fill-opacity="1.000000" fill-rule="nonzero"/>
		</g>
		<path id="Vector" d="M36.84 1.04C38 1.04 38.94 1.97 38.94 3.12L38.94 21.87C38.94 23.02 38 23.95 36.84 23.95L3.15 23.95C2 23.95 1.05 23.02 1.05 21.87L1.05 3.12C1.05 1.97 2 1.04 3.15 1.04L36.84 1.04Z" fill="#FFFFFF" fill-opacity="1.000000" fill-rule="nonzero"/>
		<path id="Vector" d="M23.15 12.5C23.15 16.52 19.85 19.79 15.78 19.79C11.72 19.79 8.42 16.52 8.42 12.5C8.42 8.47 11.72 5.2 15.78 5.2C19.85 5.2 23.15 8.47 23.15 12.5Z" fill="#EB001B" fill-opacity="1.000000" fill-rule="evenodd"/>
		<path id="Vector" d="M31.57 12.5C31.57 16.52 28.28 19.79 24.21 19.79C20.14 19.79 16.84 16.52 16.84 12.5C16.84 8.47 20.14 5.2 24.21 5.2C28.28 5.2 31.57 8.47 31.57 12.5Z" fill="#F79E1B" fill-opacity="1.000000" fill-rule="evenodd"/>
		<path id="Vector" d="M23.15 12.5C23.15 10 21.89 7.81 20 6.56C18.1 7.91 16.84 10.1 16.84 12.5C16.84 14.89 18.1 17.18 20 18.43C21.89 17.18 23.15 15 23.15 12.5Z" fill="#FF5F00" fill-opacity="1.000000" fill-rule="nonzero"/>
	</g>
</svg>
