<svg width="40.000000" height="25.000000" viewBox="0 0 40 25" fill="none" xmlns="http://www.w3.org/2000/svg" xmlns:xlink="http://www.w3.org/1999/xlink">
	<desc>
			Created with Pixso.
	</desc>
	<defs>
		<clipPath id="clip2_157">
			<rect id="Frame" width="40.000000" height="25.000000" fill="white" fill-opacity="0"/>
		</clipPath>
	</defs>
	<rect id="Frame" width="40.000000" height="25.000000" fill="#FFFFFF" fill-opacity="0"/>
	<g clip-path="url(#clip2_157)">
		<path id="Vector" d="M36.19 0L3.8 0C3.66 0 3.53 0 3.39 0C3.28 0 3.17 0 3.05 0C2.8 0.01 2.55 0.02 2.31 0.07C2.06 0.11 1.83 0.18 1.6 0.3C1.16 0.52 0.79 0.88 0.57 1.32C0.46 1.54 0.38 1.78 0.34 2.02C0.29 2.26 0.28 2.51 0.27 2.75C0.27 2.87 0.27 2.98 0.26 3.09C0.26 3.22 0.26 3.36 0.26 3.49L0.26 21.5C0.26 21.63 0.26 21.76 0.26 21.9C0.27 22.01 0.27 22.12 0.27 22.24C0.28 22.48 0.29 22.73 0.34 22.97C0.38 23.21 0.46 23.45 0.57 23.67C0.68 23.89 0.83 24.09 1 24.26C1.18 24.44 1.38 24.58 1.6 24.69C1.83 24.81 2.06 24.88 2.31 24.92C2.55 24.97 2.8 24.98 3.05 24.99C3.17 24.99 3.28 24.99 3.39 24.99C3.53 25 3.66 25 3.8 25L36.19 25C36.33 25 36.46 25 36.6 24.99C36.71 24.99 36.82 24.99 36.94 24.99C37.18 24.98 37.43 24.97 37.68 24.92C37.93 24.88 38.16 24.81 38.39 24.69C38.83 24.47 39.19 24.11 39.42 23.67C39.54 23.44 39.61 23.22 39.65 22.97C39.7 22.73 39.71 22.48 39.72 22.24C39.72 22.12 39.72 22.01 39.73 21.9C39.73 21.76 39.73 21.63 39.73 21.5L39.73 3.49C39.73 3.36 39.73 3.23 39.73 3.09C39.72 2.98 39.72 2.87 39.72 2.75C39.71 2.51 39.7 2.26 39.65 2.02C39.61 1.78 39.53 1.54 39.42 1.32C39.19 0.88 38.83 0.52 38.39 0.3C38.16 0.18 37.93 0.11 37.68 0.07C37.43 0.02 37.18 0.01 36.94 0C36.82 0 36.71 0 36.6 0C36.46 0 36.33 0 36.19 0Z" fill="#000000" fill-opacity="1.000000" fill-rule="nonzero"/>
		<path id="Vector" d="M36.19 0.83L36.59 0.83C36.7 0.83 36.81 0.83 36.91 0.83C37.1 0.84 37.32 0.85 37.53 0.89C37.71 0.92 37.86 0.97 38 1.04C38.29 1.18 38.53 1.41 38.67 1.7C38.75 1.84 38.79 1.99 38.83 2.17C38.86 2.37 38.87 2.59 38.88 2.78C38.88 2.88 38.88 2.99 38.88 3.1C38.88 3.23 38.88 3.36 38.88 3.49L38.88 21.5C38.88 21.63 38.88 21.76 38.88 21.89C38.88 22 38.88 22.11 38.88 22.21C38.87 22.4 38.86 22.62 38.83 22.82C38.8 22.99 38.75 23.14 38.67 23.29C38.53 23.58 38.29 23.81 38 23.95C37.86 24.02 37.71 24.07 37.53 24.1C37.32 24.14 37.09 24.15 36.92 24.16C36.81 24.16 36.7 24.16 36.59 24.16C36.46 24.16 36.32 24.16 36.19 24.16L3.79 24.16C3.66 24.16 3.53 24.16 3.4 24.16C3.29 24.16 3.18 24.16 3.08 24.16C2.9 24.15 2.67 24.14 2.46 24.1C2.29 24.08 2.13 24.03 1.99 23.95C1.84 23.88 1.71 23.79 1.6 23.67C1.49 23.56 1.39 23.43 1.32 23.29C1.24 23.14 1.19 22.98 1.16 22.82C1.13 22.62 1.12 22.4 1.11 22.21C1.11 22.11 1.11 22 1.11 21.89L1.11 21.58L1.11 3.41L1.11 3.1C1.11 2.99 1.11 2.88 1.11 2.78C1.12 2.59 1.13 2.37 1.16 2.17C1.19 2 1.24 1.85 1.32 1.7C1.39 1.56 1.49 1.43 1.6 1.32C1.71 1.2 1.84 1.11 1.99 1.04C2.14 0.96 2.29 0.91 2.46 0.89C2.67 0.85 2.89 0.84 3.08 0.83C3.18 0.83 3.29 0.83 3.4 0.83L3.8 0.83L36.19 0.83Z" fill="#FFFFFF" fill-opacity="1.000000" fill-rule="nonzero"/>
		<path id="Vector" d="M10.64 8.43C10.97 8.02 11.2 7.46 11.14 6.9C10.65 6.92 10.05 7.21 9.71 7.63C9.39 7.98 9.12 8.56 9.19 9.11C9.74 9.16 10.29 8.84 10.64 8.43Z" fill="#000000" fill-opacity="1.000000" fill-rule="nonzero"/>
		<path id="Vector" d="M11.13 9.21C10.33 9.17 9.66 9.66 9.27 9.66C8.89 9.66 8.31 9.24 7.68 9.25C6.86 9.26 6.09 9.72 5.68 10.45C4.82 11.92 5.45 14.09 6.28 15.28C6.69 15.87 7.18 16.52 7.82 16.49C8.43 16.47 8.67 16.1 9.4 16.1C10.14 16.1 10.36 16.49 11 16.48C11.67 16.47 12.09 15.89 12.49 15.3C12.96 14.63 13.15 13.98 13.16 13.95C13.15 13.93 11.87 13.45 11.86 12C11.85 10.78 12.86 10.21 12.91 10.17C12.34 9.33 11.44 9.24 11.13 9.21L11.13 9.21Z" fill="#000000" fill-opacity="1.000000" fill-rule="nonzero"/>
		<path id="Vector" d="M19.09 7.57C20.83 7.57 22.04 8.75 22.04 10.48C22.04 12.21 20.8 13.4 19.05 13.4L17.13 13.4L17.13 16.42L15.74 16.42L15.74 7.57L19.09 7.57ZM17.13 12.24L18.72 12.24C19.93 12.24 20.62 11.6 20.62 10.48C20.62 9.37 19.93 8.73 18.73 8.73L17.13 8.73L17.13 12.24Z" fill="#000000" fill-opacity="1.000000" fill-rule="nonzero"/>
		<path id="Vector" d="M22.38 14.59C22.38 13.45 23.25 12.8 24.86 12.7L26.59 12.6L26.59 12.11C26.59 11.39 26.12 11 25.27 11C24.57 11 24.06 11.35 23.95 11.9L22.7 11.9C22.74 10.75 23.83 9.92 25.31 9.92C26.89 9.92 27.93 10.74 27.93 12.02L27.93 16.42L26.64 16.42L26.64 15.36L26.61 15.36C26.25 16.05 25.44 16.49 24.57 16.49C23.28 16.49 22.38 15.73 22.38 14.59ZM26.59 14.02L26.59 13.52L25.05 13.62C24.18 13.67 23.73 13.99 23.73 14.55C23.73 15.09 24.2 15.44 24.94 15.44C25.88 15.44 26.59 14.84 26.59 14.02Z" fill="#000000" fill-opacity="1.000000" fill-rule="nonzero"/>
		<path id="Vector" d="M29.11 18.79L29.11 17.73C29.19 17.74 29.4 17.75 29.51 17.75C30.13 17.75 30.48 17.49 30.69 16.83L30.81 16.44L28.46 10L29.91 10L31.55 15.22L31.58 15.22L33.21 10L34.63 10L32.19 16.76C31.63 18.31 31 18.82 29.64 18.82C29.54 18.82 29.2 18.81 29.11 18.79Z" fill="#000000" fill-opacity="1.000000" fill-rule="nonzero"/>
	</g>
</svg>
