<svg width="40.000000" height="25.000000" viewBox="0 0 40 25" fill="none" xmlns="http://www.w3.org/2000/svg" xmlns:xlink="http://www.w3.org/1999/xlink">
	<desc>
			Created with Pixso.
	</desc>
	<defs>
		<clipPath id="clip2_187">
			<rect id="Frame" width="40.000000" height="25.000000" fill="white" fill-opacity="0"/>
		</clipPath>
	</defs>
	<rect id="Frame" width="40.000000" height="25.000000" fill="#FFFFFF" fill-opacity="0"/>
	<g clip-path="url(#clip2_187)">
		<g opacity="0.070000">
			<path id="Vector" d="M36.84 0L3.15 0C1.36 0 0 1.35 0 3.12L0 21.87C0 23.64 1.47 25 3.15 25L36.84 25C38.63 25 40 23.64 40 21.87L40 3.12C40 1.35 38.52 0 36.84 0Z" fill="#000000" fill-opacity="1.000000" fill-rule="nonzero"/>
		</g>
		<path id="Vector" d="M36.84 1.04C38 1.04 38.94 1.97 38.94 3.12L38.94 21.87C38.94 23.02 38 23.95 36.84 23.95L3.15 23.95C2 23.95 1.05 23.02 1.05 21.87L1.05 3.12C1.05 1.97 2 1.04 3.15 1.04L36.84 1.04Z" fill="#FFFFFF" fill-opacity="1.000000" fill-rule="nonzero"/>
		<path id="Vector" d="M25.15 8.64C25.36 7.6 25.15 6.87 24.52 6.25C23.89 5.52 22.73 5.2 21.26 5.2L16.94 5.2C16.63 5.2 16.42 5.41 16.31 5.72L14.73 16.25C14.73 16.45 14.84 16.66 15.05 16.66L17.89 16.66L18.31 13.12L20.21 10.83L25.15 8.64Z" fill="#003087" fill-opacity="1.000000" fill-rule="nonzero"/>
		<path id="Vector" d="M25.15 8.64L24.94 8.85C24.42 11.77 22.63 12.81 20.1 12.81L18.94 12.81C18.63 12.81 18.42 13.02 18.31 13.33L17.68 17.39L17.47 18.43C17.47 18.64 17.57 18.85 17.78 18.85L20 18.85C20.31 18.85 20.52 18.64 20.52 18.43L20.52 18.33L20.94 15.83L20.94 15.72C20.94 15.52 21.26 15.31 21.47 15.31L21.78 15.31C24 15.31 25.68 14.47 26.1 11.97C26.31 10.93 26.21 10.1 25.68 9.47C25.57 8.95 25.36 8.75 25.15 8.64Z" fill="#3086C8" fill-opacity="1.000000" fill-rule="nonzero"/>
		<path id="Vector" d="M24.52 8.43C24.42 8.33 24.31 8.33 24.21 8.33C24.1 8.33 24 8.33 23.89 8.22C23.57 8.12 23.15 8.12 22.73 8.12L19.57 8.12C19.47 8.12 19.36 8.12 19.36 8.22C19.15 8.33 19.05 8.43 19.05 8.64L18.31 13.22L18.31 13.33C18.31 13.02 18.63 12.81 18.94 12.81L20.31 12.81C22.94 12.81 24.63 11.77 25.15 8.85L25.15 8.64C25.05 8.54 24.84 8.43 24.63 8.43L24.52 8.43Z" fill="#012169" fill-opacity="1.000000" fill-rule="nonzero"/>
	</g>
</svg>
