<svg width="40.000000" height="25.000000" viewBox="0 0 40 25" fill="none" xmlns="http://www.w3.org/2000/svg" xmlns:xlink="http://www.w3.org/1999/xlink">
	<desc>
			Created with Pixso.
	</desc>
	<defs>
		<clipPath id="clip2_197">
			<rect id="Frame" width="40.000000" height="25.000000" fill="white" fill-opacity="0"/>
		</clipPath>
	</defs>
	<rect id="Frame" width="40.000000" height="25.000000" fill="#FFFFFF" fill-opacity="0"/>
	<g clip-path="url(#clip2_197)">
		<path id="Vector" d="M3.15 0L36.84 0C38.58 0 40 1.39 40 3.12L40 21.87C40 23.6 38.58 25 36.84 25L3.15 25C1.41 25 0 23.6 0 21.87L0 3.12C0 1.39 1.41 0 3.15 0Z" fill="#000000" fill-opacity="0.070000" fill-rule="evenodd"/>
		<path id="Vector" d="M36.84 1.04C38 1.04 38.94 1.97 38.94 3.12L38.94 21.87C38.94 23.02 38 23.95 36.84 23.95L3.15 23.95C2 23.95 1.05 23.02 1.05 21.87L1.05 3.12C1.05 1.97 2 1.04 3.15 1.04L36.84 1.04Z" fill="#3D95CE" fill-opacity="1.000000" fill-rule="evenodd"/>
		<path id="Vector" d="M25.97 8.7C25.97 11.89 23.28 16.04 21.09 18.95L16.1 18.95L14.1 6.84L18.47 6.42L19.53 15.04C20.52 13.41 21.74 10.85 21.74 9.1C21.74 8.14 21.58 7.49 21.32 6.96L25.3 6.14C25.76 6.91 25.97 7.7 25.97 8.7Z" fill="#FFFFFF" fill-opacity="1.000000" fill-rule="nonzero"/>
	</g>
</svg>
