<svg width="40.000000" height="25.000000" viewBox="0 0 40 25" fill="none" xmlns="http://www.w3.org/2000/svg" xmlns:xlink="http://www.w3.org/1999/xlink">
	<desc>
			Created with Pixso.
	</desc>
	<defs>
		<clipPath id="clip2_202">
			<rect id="Frame" width="40.000000" height="25.000000" fill="white" fill-opacity="0"/>
		</clipPath>
	</defs>
	<rect id="Frame" width="40.000000" height="25.000000" fill="#FFFFFF" fill-opacity="0"/>
	<g clip-path="url(#clip2_202)">
		<g opacity="0.070000">
			<path id="Vector" d="M36.84 0L3.15 0C1.36 0 0 1.35 0 3.12L0 21.87C0 23.64 1.47 25 3.15 25L36.84 25C38.63 25 40 23.64 40 21.87L40 3.12C40 1.35 38.52 0 36.84 0Z" fill="#000000" fill-opacity="1.000000" fill-rule="nonzero"/>
		</g>
		<path id="Vector" d="M36.84 1.04C38 1.04 38.94 1.97 38.94 3.12L38.94 21.87C38.94 23.02 38 23.95 36.84 23.95L3.15 23.95C2 23.95 1.05 23.02 1.05 21.87L1.05 3.12C1.05 1.97 2 1.04 3.15 1.04L36.84 1.04Z" fill="#FFFFFF" fill-opacity="1.000000" fill-rule="nonzero"/>
		<path id="Vector" d="M29.78 10.52L29.47 10.52C29.05 11.56 28.73 12.08 28.42 13.64L30.42 13.64C30.1 12.08 30.1 11.35 29.78 10.52ZM32.84 16.66L31.05 16.66C30.94 16.66 30.94 16.66 30.84 16.56L30.63 15.62L30.52 15.41L28 15.41C27.89 15.41 27.78 15.41 27.78 15.62L27.47 16.56C27.47 16.66 27.36 16.66 27.36 16.66L25.15 16.66L25.36 16.14L28.42 9.06C28.42 8.54 28.73 8.33 29.26 8.33L30.84 8.33C30.94 8.33 31.05 8.33 31.05 8.54L32.52 15.31C32.63 15.72 32.73 16.04 32.73 16.45C32.84 16.56 32.84 16.56 32.84 16.66ZM18.73 16.35L19.15 14.47C19.26 14.47 19.36 14.58 19.36 14.58C20.1 14.89 20.84 15.1 21.57 15C21.78 15 22.1 14.89 22.31 14.79C22.84 14.58 22.84 14.06 22.42 13.64C22.21 13.43 21.89 13.33 21.57 13.12C21.15 12.91 20.73 12.7 20.42 12.39C19.15 11.35 19.57 9.89 20.31 9.16C20.94 8.75 21.26 8.33 22.1 8.33C23.36 8.33 24.73 8.33 25.36 8.54L25.47 8.54C25.36 9.16 25.26 9.68 25.05 10.31C24.52 10.1 24 9.89 23.47 9.89C23.15 9.89 22.84 9.89 22.52 10C22.31 10 22.21 10.1 22.1 10.2C21.89 10.41 21.89 10.72 22.1 10.93L22.63 11.35C23.05 11.56 23.47 11.77 23.78 11.97C24.31 12.29 24.84 12.81 24.94 13.43C25.15 14.37 24.84 15.2 24 15.83C23.47 16.25 23.26 16.45 22.52 16.45C21.05 16.45 19.89 16.56 18.94 16.25C18.84 16.45 18.84 16.45 18.73 16.35ZM15.05 16.66C15.15 15.93 15.15 15.93 15.26 15.62C15.78 13.33 16.31 10.93 16.73 8.64C16.84 8.43 16.84 8.33 17.05 8.33L18.94 8.33C18.73 9.58 18.52 10.52 18.21 11.66C17.89 13.22 17.57 14.79 17.15 16.35C17.15 16.56 17.05 16.56 16.84 16.56L15.05 16.66ZM5.26 8.54C5.26 8.43 5.47 8.33 5.57 8.33L9.15 8.33C9.68 8.33 10.1 8.64 10.21 9.16L11.15 13.75C11.15 13.85 11.15 13.85 11.26 13.95C11.26 13.85 11.36 13.85 11.36 13.85L13.57 8.54C13.47 8.43 13.57 8.33 13.68 8.33L15.89 8.33C15.89 8.43 15.89 8.43 15.78 8.54L12.52 16.14C12.42 16.35 12.42 16.45 12.31 16.56C12.21 16.66 12 16.56 11.78 16.56L10.21 16.56C10.1 16.56 10 16.56 10 16.35L8.31 9.89C8.1 9.68 7.78 9.37 7.36 9.27C6.73 8.95 5.57 8.75 5.36 8.75L5.26 8.54Z" fill="#142688" fill-opacity="1.000000" fill-rule="nonzero"/>
	</g>
</svg>
